<?xml version="1.0" encoding="utf-8"?>
<!-- Generator: Adobe Illustrator 15.1.0, SVG Export Plug-In . SVG Version: 6.00 Build 0)  -->
<!DOCTYPE svg PUBLIC "-//W3C//DTD SVG 1.1//EN" "http://www.w3.org/Graphics/SVG/1.1/DTD/svg11.dtd">
<svg version="1.1" xmlns="http://www.w3.org/2000/svg" xmlns:xlink="http://www.w3.org/1999/xlink" x="0px" y="0px"
	 width="79.536px" height="79.536px" viewBox="0 0 79.536 79.536" enable-background="new 0 0 79.536 79.536" xml:space="preserve">
<g id="Capa_1">
	<g>
		<path fill="none" stroke="#C5CAE9" stroke-width="0.25" stroke-miterlimit="10" d="M43.858,74.475
			c0,0.833-0.745,1.518-1.672,1.518H17.101c-0.935,0-1.686-0.685-1.686-1.518v-11.43c0-0.844,0.756-1.517,1.686-1.517h25.085
			c0.932,0,1.672,0.673,1.672,1.517V74.475z M79.536,63.051c0-0.838-0.756-1.518-1.688-1.518H52.76c-0.938,0-1.692,0.68-1.692,1.518
			V74.48c0,0.834,0.757,1.513,1.692,1.513h25.078c0.941,0,1.692-0.679,1.692-1.513V63.051H79.536z M61.704,41.375
			c0-0.836-0.758-1.515-1.688-1.515H34.921c-0.921,0-1.686,0.679-1.686,1.515V52.81c0,0.833,0.769,1.521,1.686,1.521h25.083
			c0.941,0,1.699-0.683,1.699-1.521V41.375L61.704,41.375z M35.76,28.478L35.76,28.478c0.821,0.577,1.955,0.375,2.545-0.456
			l5.729-8.23c0.574-0.821,0.373-1.968-0.445-2.545l0,0l-1.772-1.22l-7.77,11.257L35.76,28.478z M0,45.42
			c1.103,2.346,3.573,3.951,6.007,4.22l15.198-21.678l-6.03-4.22L0,45.42z M32.351,24.091c0.106,0.148,0.207,0.298,0.298,0.456
			c0.067,0.122,0.132,0.238,0.184,0.345c0.101,0.233,0.207,0.461,0.262,0.686c2.237-3.205,4.484-6.4,6.727-9.6
			c0,0-5.233,0.637-7.98-5.593c-0.562-0.398-1.155-0.795-1.716-1.198C22.228,3.671,14.74,2.548,8.218,4.319
			C7.858,4.42,7.154,4.653,6.507,4.87C5.362,5.259,5.562,6.996,6.846,6.789c0.604-0.106,1.22-0.205,1.522-0.223
			c1.24-0.052,2.434-0.137,3.674,0.091c5.297,1.017,9.455,5.838,5.98,10.791c-0.932,1.326-2.804,3.936-2.783,3.966
			c0.011,0.021,7.884,5.46,7.848,5.52c-0.223,0.319,0.536-0.707,0.779-1.02c1.167-1.367,3.627-3.705,6.654-3.091
			c0.474,0.104,0.87,0.318,1.199,0.59c0.161,0.143,0.329,0.29,0.466,0.461C32.25,23.944,32.296,24.017,32.351,24.091z"/>
	</g>
</g>
<g id="Layer_2">
	<g>
		<circle fill="#C5CAE9" cx="43.858" cy="63.045" r="0.5"/>
		<circle fill="none" stroke="#C5CAE9" stroke-width="0.25" stroke-miterlimit="10" cx="43.858" cy="63.045" r="0.5"/>
	</g>
	<g>
		<circle fill="#C5CAE9" cx="42.186" cy="61.529" r="0.5"/>
		<circle fill="none" stroke="#C5CAE9" stroke-width="0.25" stroke-miterlimit="10" cx="42.186" cy="61.529" r="0.5"/>
	</g>
	<g>
		<circle fill="#C5CAE9" cx="17.102" cy="61.529" r="0.5"/>
		<circle fill="none" stroke="#C5CAE9" stroke-width="0.25" stroke-miterlimit="10" cx="17.102" cy="61.529" r="0.5"/>
	</g>
	<g>
		<circle fill="#C5CAE9" cx="15.416" cy="63.045" r="0.5"/>
		<circle fill="none" stroke="#C5CAE9" stroke-width="0.25" stroke-miterlimit="10" cx="15.416" cy="63.045" r="0.5"/>
	</g>
	<g>
		<circle fill="#C5CAE9" cx="15.416" cy="74.475" r="0.5"/>
		<circle fill="none" stroke="#C5CAE9" stroke-width="0.25" stroke-miterlimit="10" cx="15.416" cy="74.475" r="0.5"/>
	</g>
	<g>
		<circle fill="#C5CAE9" cx="17.102" cy="75.993" r="0.5"/>
		<circle fill="none" stroke="#C5CAE9" stroke-width="0.25" stroke-miterlimit="10" cx="17.102" cy="75.993" r="0.5"/>
	</g>
	<g>
		<circle fill="#C5CAE9" cx="42.186" cy="75.993" r="0.5"/>
		<circle fill="none" stroke="#C5CAE9" stroke-width="0.25" stroke-miterlimit="10" cx="42.186" cy="75.993" r="0.5"/>
	</g>
	<g>
		<circle fill="#C5CAE9" cx="43.858" cy="74.475" r="0.5"/>
		<circle fill="none" stroke="#C5CAE9" stroke-width="0.25" stroke-miterlimit="10" cx="43.858" cy="74.475" r="0.5"/>
	</g>
	<g>
		<circle fill="#C5CAE9" cx="79.532" cy="63.051" r="0.5"/>
		<circle fill="none" stroke="#C5CAE9" stroke-width="0.25" stroke-miterlimit="10" cx="79.532" cy="63.051" r="0.5"/>
	</g>
	<g>
		<circle fill="#C5CAE9" cx="79.532" cy="74.48" r="0.5"/>
		<circle fill="none" stroke="#C5CAE9" stroke-width="0.25" stroke-miterlimit="10" cx="79.532" cy="74.48" r="0.5"/>
	</g>
	<g>
		<circle fill="#C5CAE9" cx="77.838" cy="75.993" r="0.5"/>
		<circle fill="none" stroke="#C5CAE9" stroke-width="0.25" stroke-miterlimit="10" cx="77.838" cy="75.993" r="0.5"/>
	</g>
	<g>
		<circle fill="#C5CAE9" cx="52.76" cy="75.993" r="0.5"/>
		<circle fill="none" stroke="#C5CAE9" stroke-width="0.25" stroke-miterlimit="10" cx="52.76" cy="75.993" r="0.5"/>
	</g>
	<g>
		<circle fill="#C5CAE9" cx="51.069" cy="74.48" r="0.5"/>
		<circle fill="none" stroke="#C5CAE9" stroke-width="0.25" stroke-miterlimit="10" cx="51.069" cy="74.48" r="0.5"/>
	</g>
	<g>
		<circle fill="#C5CAE9" cx="51.069" cy="63.051" r="0.5"/>
		<circle fill="none" stroke="#C5CAE9" stroke-width="0.25" stroke-miterlimit="10" cx="51.069" cy="63.051" r="0.5"/>
	</g>
	<g>
		<circle fill="#C5CAE9" cx="52.76" cy="61.534" r="0.5"/>
		<circle fill="none" stroke="#C5CAE9" stroke-width="0.25" stroke-miterlimit="10" cx="52.76" cy="61.534" r="0.5"/>
	</g>
	<g>
		<circle fill="#C5CAE9" cx="77.848" cy="61.534" r="0.5"/>
		<circle fill="none" stroke="#C5CAE9" stroke-width="0.25" stroke-miterlimit="10" cx="77.848" cy="61.534" r="0.5"/>
	</g>
	<g>
		<circle fill="#C5CAE9" cx="79.536" cy="63.051" r="0.5"/>
		<circle fill="none" stroke="#C5CAE9" stroke-width="0.25" stroke-miterlimit="10" cx="79.536" cy="63.051" r="0.5"/>
	</g>
	<g>
		<circle fill="#C5CAE9" cx="61.704" cy="41.375" r="0.5"/>
		<circle fill="none" stroke="#C5CAE9" stroke-width="0.25" stroke-miterlimit="10" cx="61.704" cy="41.375" r="0.5"/>
	</g>
	<g>
		<circle fill="#C5CAE9" cx="61.704" cy="52.81" r="0.5"/>
		<circle fill="none" stroke="#C5CAE9" stroke-width="0.25" stroke-miterlimit="10" cx="61.704" cy="52.81" r="0.5"/>
	</g>
	<g>
		<circle fill="#C5CAE9" cx="60.004" cy="54.331" r="0.5"/>
		<circle fill="none" stroke="#C5CAE9" stroke-width="0.25" stroke-miterlimit="10" cx="60.004" cy="54.331" r="0.5"/>
	</g>
	<g>
		<circle fill="#C5CAE9" cx="34.921" cy="54.331" r="0.5"/>
		<circle fill="none" stroke="#C5CAE9" stroke-width="0.25" stroke-miterlimit="10" cx="34.921" cy="54.331" r="0.5"/>
	</g>
	<g>
		<circle fill="#C5CAE9" cx="33.235" cy="52.81" r="0.5"/>
		<circle fill="none" stroke="#C5CAE9" stroke-width="0.25" stroke-miterlimit="10" cx="33.235" cy="52.81" r="0.5"/>
	</g>
	<g>
		<circle fill="#C5CAE9" cx="33.235" cy="41.375" r="0.5"/>
		<circle fill="none" stroke="#C5CAE9" stroke-width="0.25" stroke-miterlimit="10" cx="33.235" cy="41.375" r="0.5"/>
	</g>
	<g>
		<circle fill="#C5CAE9" cx="34.921" cy="39.861" r="0.5"/>
		<circle fill="none" stroke="#C5CAE9" stroke-width="0.25" stroke-miterlimit="10" cx="34.921" cy="39.861" r="0.5"/>
	</g>
	<g>
		<circle fill="#C5CAE9" cx="60.016" cy="39.861" r="0.5"/>
		<circle fill="none" stroke="#C5CAE9" stroke-width="0.25" stroke-miterlimit="10" cx="60.016" cy="39.861" r="0.5"/>
	</g>
	<g>
		<circle fill="#C5CAE9" cx="61.704" cy="41.375" r="0.5"/>
		<circle fill="none" stroke="#C5CAE9" stroke-width="0.25" stroke-miterlimit="10" cx="61.704" cy="41.375" r="0.5"/>
	</g>
	<g>
		<circle fill="#C5CAE9" cx="34.046" cy="27.284" r="0.5"/>
		<circle fill="none" stroke="#C5CAE9" stroke-width="0.25" stroke-miterlimit="10" cx="34.046" cy="27.284" r="0.5"/>
	</g>
	<g>
		<circle fill="#C5CAE9" cx="41.817" cy="16.027" r="0.5"/>
		<circle fill="none" stroke="#C5CAE9" stroke-width="0.25" stroke-miterlimit="10" cx="41.817" cy="16.027" r="0.5"/>
	</g>
	<g>
		<circle fill="#C5CAE9" cx="44.034" cy="19.792" r="0.5"/>
		<circle fill="none" stroke="#C5CAE9" stroke-width="0.25" stroke-miterlimit="10" cx="44.034" cy="19.792" r="0.5"/>
	</g>
	<g>
		<circle fill="#C5CAE9" cx="38.306" cy="28.022" r="0.5"/>
		<circle fill="none" stroke="#C5CAE9" stroke-width="0.25" stroke-miterlimit="10" cx="38.306" cy="28.022" r="0.5"/>
	</g>
	<g>
		<circle fill="#C5CAE9" cx="15.175" cy="23.742" r="0.5"/>
		<circle fill="none" stroke="#C5CAE9" stroke-width="0.25" stroke-miterlimit="10" cx="15.175" cy="23.742" r="0.5"/>
	</g>
	<g>
		<circle fill="#C5CAE9" cx="21.206" cy="27.962" r="0.5"/>
		<circle fill="none" stroke="#C5CAE9" stroke-width="0.25" stroke-miterlimit="10" cx="21.206" cy="27.962" r="0.5"/>
	</g>
	<g>
		<circle fill="#C5CAE9" cx="6.007" cy="49.64" r="0.5"/>
		<circle fill="none" stroke="#C5CAE9" stroke-width="0.25" stroke-miterlimit="10" cx="6.007" cy="49.64" r="0.5"/>
	</g>
	<g>
		<circle fill="#C5CAE9" cx="0" cy="45.42" r="0.5"/>
		<circle fill="none" stroke="#C5CAE9" stroke-width="0.25" stroke-miterlimit="10" cx="0" cy="45.42" r="0.5"/>
	</g>
	<g>
		<circle fill="#C5CAE9" cx="23.087" cy="26.934" r="0.5"/>
		<circle fill="none" stroke="#C5CAE9" stroke-width="0.25" stroke-miterlimit="10" cx="23.087" cy="26.934" r="0.5"/>
	</g>
	<g>
		<circle fill="#C5CAE9" cx="15.239" cy="21.414" r="0.5"/>
		<circle fill="none" stroke="#C5CAE9" stroke-width="0.25" stroke-miterlimit="10" cx="15.239" cy="21.414" r="0.5"/>
	</g>
	<g>
		<circle fill="#C5CAE9" cx="18.022" cy="17.448" r="0.5"/>
		<circle fill="none" stroke="#C5CAE9" stroke-width="0.25" stroke-miterlimit="10" cx="18.022" cy="17.448" r="0.5"/>
	</g>
	<g>
		<circle fill="#C5CAE9" cx="12.042" cy="6.657" r="0.5"/>
		<circle fill="none" stroke="#C5CAE9" stroke-width="0.25" stroke-miterlimit="10" cx="12.042" cy="6.657" r="0.5"/>
	</g>
	<g>
		<circle fill="#C5CAE9" cx="6.847" cy="6.789" r="0.5"/>
		<circle fill="none" stroke="#C5CAE9" stroke-width="0.25" stroke-miterlimit="10" cx="6.847" cy="6.789" r="0.5"/>
	</g>
	<g>
		<circle fill="#C5CAE9" cx="6.507" cy="4.87" r="0.5"/>
		<circle fill="none" stroke="#C5CAE9" stroke-width="0.25" stroke-miterlimit="10" cx="6.507" cy="4.87" r="0.5"/>
	</g>
	<g>
		<circle fill="#C5CAE9" cx="30.126" cy="9.187" r="0.5"/>
		<circle fill="none" stroke="#C5CAE9" stroke-width="0.25" stroke-miterlimit="10" cx="30.126" cy="9.187" r="0.5"/>
	</g>
	<g>
		<circle fill="#C5CAE9" cx="31.842" cy="10.385" r="0.5"/>
		<circle fill="none" stroke="#C5CAE9" stroke-width="0.25" stroke-miterlimit="10" cx="31.842" cy="10.385" r="0.5"/>
	</g>
	<g>
		<circle fill="#C5CAE9" cx="39.823" cy="15.978" r="0.5"/>
		<circle fill="none" stroke="#C5CAE9" stroke-width="0.25" stroke-miterlimit="10" cx="39.823" cy="15.978" r="0.5"/>
	</g>
	<g>
		<circle fill="#C5CAE9" cx="33.096" cy="25.578" r="0.5"/>
		<circle fill="none" stroke="#C5CAE9" stroke-width="0.25" stroke-miterlimit="10" cx="33.096" cy="25.578" r="0.5"/>
	</g>
</g>
</svg>
