<?xml version="1.0" encoding="utf-8"?>
<!-- Generator: Adobe Illustrator 15.1.0, SVG Export Plug-In . SVG Version: 6.00 Build 0)  -->
<!DOCTYPE svg PUBLIC "-//W3C//DTD SVG 1.1//EN" "http://www.w3.org/Graphics/SVG/1.1/DTD/svg11.dtd">
<svg version="1.1" id="Capa_1" xmlns="http://www.w3.org/2000/svg" xmlns:xlink="http://www.w3.org/1999/xlink" x="0px" y="0px"
	 width="79.536px" height="79.536px" viewBox="0 0 79.536 79.536" enable-background="new 0 0 79.536 79.536" xml:space="preserve">
<g>
	<path fill="none" stroke="#000000" stroke-miterlimit="10" d="M43.858,74.475H15.415v-11.43h28.443V74.475L43.858,74.475z
		 M79.536,63.051H51.068V74.48h28.463V63.051H79.536L79.536,63.051z M60.015,39.861H34.921v14.47h25.083L60.015,39.861z
		 M35.76,28.478L35.76,28.478l2.545-0.456l5.729-8.23l-0.445-2.545l-1.772-1.22l-7.77,11.257L35.76,28.478L35.76,28.478z M0,45.42
		l6.007,4.22l15.198-21.678l-6.03-4.22L0,45.42L0,45.42z M32.351,24.091l0.744,1.487l6.727-9.6l-9.696-6.791L8.218,4.319L6.507,4.87
		l11.515,12.578l-2.783,3.966l7.848,5.52l7.433-4.111L32.351,24.091L32.351,24.091z"/>
</g>
</svg>
