<?xml version="1.0" encoding="utf-8"?>
<!-- Generator: Adobe Illustrator 15.1.0, SVG Export Plug-In . SVG Version: 6.00 Build 0)  -->
<!DOCTYPE svg PUBLIC "-//W3C//DTD SVG 1.1//EN" "http://www.w3.org/Graphics/SVG/1.1/DTD/svg11.dtd">
<svg version="1.1" xmlns="http://www.w3.org/2000/svg" xmlns:xlink="http://www.w3.org/1999/xlink" x="0px" y="0px" width="400px"
	 height="400px" viewBox="0 0 400 400" enable-background="new 0 0 400 400" xml:space="preserve">
<g id="Capa_1">
	<path fill="none" stroke="#363639" stroke-miterlimit="10" d="M372.509,225.496c-1.565-5.289-2.878-10.72-4.747-15.905
		c-2.777-7.646-5.886-15.169-8.897-22.704c-2.804-7.105-5.167-14.328-6.572-21.835c-0.319-1.666,0.233-3.607,0.745-5.309
		c0.729-2.468,1.913-4.805,2.642-7.259c0.32-1.001,0.046-2.227-0.188-3.3c-4.674-21.208-11.539-41.626-21.441-61.022
		c-0.951-1.854-1.856-3.739-2.818-5.732c3.011-1.898,5.988-3.753,9.069-5.652c-8.777-14.671-18.622-28.313-32-39.347
		c2.892-1.103,5.436-2.125,8.135-3.126c-0.251-0.285-0.365-0.511-0.626-0.658c-10.866-7.96-22.58-14.299-35.113-19.293
		C263.842,7.619,246.402,3.194,228.41,1.098c-5.535-0.628-11.116-0.73-16.694-1.073c-0.353-0.029-16.314-0.029-16.986-0.015
		c-11.583,0.314-22.99,1.914-34.381,4.039c-12.794,2.33-25.341,5.58-37.478,10.188c-18.344,6.952-35.359,16.227-49.877,29.715
		c-6.471,6.01-12.225,12.604-17.512,19.666c-7.201,9.574-12.985,19.936-17.658,30.942c-4.849,11.473-7.945,23.391-9.362,35.762
		c-0.394,3.652-0.657,7.332-0.963,10.991c-1.037,21.506,1.635,33.104,2.906,39.668c1.155,5.908,2.864,11.721,4.835,17.41
		c6.733,19.513,16.738,37.245,30.043,53.063c9.392,11.146,17.366,23.267,24.391,36.003c11.392,20.648,19.893,42.426,25.253,65.432
		c0.833,3.592,1.111,7.215,1.14,10.896c0.043,8.673,0.161,17.394,0.306,26.067c0.045,3.404,0.074,6.763,0.161,10.15h174.156
		l0.118-43.498c0.25-5.288,0.672-10.547,1.592-15.714c0.747-4.059,3.405-7.564,7.741-8.969c6.137-2.017,10.53-2.136,16.884-1.374
		c6.528,0.791,12.955,1.869,19.483,2.425c2.19,0.219,4.849,0.188,7.069-0.421c3.244-0.951,5.811-3.405,8.002-5.915
		c3.461-4.06,4.628-8.733,3.33-13.978c-0.409-1.68-0.523-3.433-0.79-5.158c-0.512-3.621,1.286-6.514,3.112-9.374
		c0.718-1.11,1.594-2.136,2.249-3.272c2.204-3.854,1.826-10.019-0.962-13.423c-1.463-1.696-3.2-3.124-4.851-4.688
		c-0.409-0.383-0.903-0.729-1.371-1.055c1.986-1.284,3.956-2.378,5.68-3.768c1.389-1.11,2.613-2.481,3.608-3.943
		c1.298-1.9,1.549-4.047,0.758-6.295c-2.071-5.726-3.432-11.555-4.148-17.6c-0.249-2.044-0.16-4.089-0.118-6.09
		c0.028-0.365,0.569-0.906,0.98-1.094c1.736-0.85,3.476-1.635,5.301-2.34C374.874,230.445,372.509,225.671,372.509,225.496z"/>
</g>
<g id="Layer_2">
	<g>
		<circle cx="357.075" cy="237.891" r="2.5"/>
	</g>
	<g>
		<circle cx="361.342" cy="261.58" r="2.5"/>
	</g>
	<g>
		<circle cx="351.296" cy="275.586" r="2.5"/>
	</g>
	<g>
		<circle cx="356.23" cy="298.024" r="2.5"/>
	</g>
	<g>
		<circle cx="353.118" cy="307.398" r="2.5"/>
	</g>
	<g>
		<circle cx="350.578" cy="326.534" r="2.5"/>
	</g>
	<g>
		<circle cx="342.576" cy="332.449" r="2.5"/>
	</g>
	<g>
		<circle cx="299.14" cy="331.819" r="2.5"/>
	</g>
	<g>
		<circle cx="291.398" cy="340.788" r="2.5"/>
	</g>
	<g>
		<circle cx="289.688" cy="400" r="2.5"/>
	</g>
	<g>
		<circle cx="115.532" cy="400" r="2.5"/>
	</g>
	<g>
		<circle cx="113.926" cy="352.887" r="2.5"/>
	</g>
	<g>
		<circle cx="88.672" cy="287.455" r="2.5"/>
	</g>
	<g>
		<circle cx="64.282" cy="251.452" r="2.5"/>
	</g>
	<g>
		<circle cx="34.239" cy="198.39" r="2.5"/>
	</g>
	<g>
		<circle cx="27.461" cy="130.321" r="2.5"/>
	</g>
	<g>
		<circle cx="36.824" cy="94.559" r="2.5"/>
	</g>
	<g>
		<circle cx="71.994" cy="43.951" r="2.5"/>
	</g>
	<g>
		<circle cx="121.871" cy="14.236" r="2.5"/>
	</g>
	<g>
		<circle cx="159.349" cy="4.048" r="2.5"/>
	</g>
	<g>
		<circle cx="227.41" cy="1.098" r="2.5"/>
	</g>
	<g>
		<circle cx="279.696" cy="14.353" r="2.5"/>
	</g>
	<g>
		<circle cx="314.81" cy="33.646" r="2.5"/>
	</g>
	<g>
		<circle cx="315.436" cy="34.304" r="2.5"/>
	</g>
	<g>
		<circle cx="307.301" cy="37.43" r="2.5"/>
	</g>
	<g>
		<circle cx="339.301" cy="76.776" r="2.5"/>
	</g>
	<g>
		<circle cx="330.231" cy="82.429" r="2.5"/>
	</g>
	<g>
		<circle cx="354.679" cy="152.484" r="2.5"/>
	</g>
	<g>
		<circle cx="352.037" cy="159.743" r="2.5"/>
	</g>
	<g>
		<circle cx="371.509" cy="225.496" r="2.5"/>
	</g>
</g>
</svg>
