<?xml version="1.0" encoding="utf-8"?>
<!-- Generator: Adobe Illustrator 15.1.0, SVG Export Plug-In . SVG Version: 6.00 Build 0)  -->
<!DOCTYPE svg PUBLIC "-//W3C//DTD SVG 1.1//EN" "http://www.w3.org/Graphics/SVG/1.1/DTD/svg11.dtd">
<svg version="1.1" id="Capa_1" xmlns="http://www.w3.org/2000/svg" xmlns:xlink="http://www.w3.org/1999/xlink" x="0px" y="0px"
	 width="400px" height="400px" viewBox="0 0 400 400" enable-background="new 0 0 400 400" xml:space="preserve">
<path fill="none" stroke="#363639" stroke-miterlimit="10" d="M27.498,225.496l8.152,8.961l5.301,2.34l0.98,1.094l-4.267,23.689
	l10.046,14.006l-7.184,19.166l4.571,17.805l3.33,13.978l51.438,5.285l7.741,8.969l1.71,59.212h174.156l1.606-47.113l79.688-154.497
	l7.74-57.078l-10.325-46.752l-35.171-50.608l-49.877-29.715L171.597,1.098L84.197,33.646l-0.626,0.658l8.135,3.126l-32,39.347
	l9.069,5.652l-24.26,66.755l-0.188,3.3l3.387,12.568L27.498,225.496L27.498,225.496z"/>
</svg>
