<?xml version="1.0" encoding="utf-8"?>
<!-- Generator: Adobe Illustrator 15.1.0, SVG Export Plug-In . SVG Version: 6.00 Build 0)  -->
<!DOCTYPE svg PUBLIC "-//W3C//DTD SVG 1.1//EN" "http://www.w3.org/Graphics/SVG/1.1/DTD/svg11.dtd">
<svg version="1.1" id="Capa_1" xmlns="http://www.w3.org/2000/svg" xmlns:xlink="http://www.w3.org/1999/xlink" x="0px" y="0px"
	 width="400px" height="400px" viewBox="0 0 400 400" enable-background="new 0 0 400 400" xml:space="preserve">
<g id="XMLID_196_">
	<path id="XMLID_198_" fill="none" stroke="#000000" stroke-miterlimit="10" d="M398.441,243.521l-53.77-6.113l-44.318-15.846
		l-80.492,15.751l-8.746-3.144l-2.327-34.036l61.228-89.605l-25.573-38.326l-3.911-1.138l-59.578,109.032l-35.749-17.399
		l-41.172,25.887l-11.435,18.243l-9.277-22.365l21.568-11.871l-13.364-44.015l-19.852,32.241l-17.515-28.023l2.771,1.071
		l14.461-12.404L55.134,87.975l-12.438,29.452L32.399,105l-0.683-19.367L0,71.687l11.393,31.484l18.478,3.823l8.314,12.558
		l-29.254,4.894l22.866,22.177l17.654-8.191l13.1,26.04l-35.453,0.89l22.75,30.151l22.657-5.258l9.1,28.77l-11.81,12.084
		l16.508,2.457l12.371,37.476l0.537,0.509l0.817-0.67l-0.882-34.67l130.179,76.275l85.973-31.184l61.562,47.512l5.02-5.141
		l17.927-74.082L398.441,243.521L398.441,243.521z"/>
	<path id="XMLID_197_" fill="none" stroke="#000000" stroke-miterlimit="10" d="M219.861,223.604l120.523-28.597l38.87-119.39
		l-3.71-3.696l-1.313-0.173l-53.568,29.274L219.861,223.604L219.861,223.604z"/>
</g>
</svg>
