<?xml version="1.0" encoding="iso-8859-1"?>
<!-- Generator: Adobe Illustrator 18.1.1, SVG Export Plug-In . SVG Version: 6.00 Build 0)  -->
<svg version="1.1" id="Capa_1" xmlns="http://www.w3.org/2000/svg" xmlns:xlink="http://www.w3.org/1999/xlink" x="0px" y="0px"
	 viewBox="0 0 324.307 324.307" style="enable-background:new 0 0 324.307 324.307;" xml:space="preserve">
<g>
	<g>
		<g>
			<path style="fill:#010002;" d="M305.788,5.274c-10.797,0-26.434,7.56-44.535,16.312c-27.5,13.277-61.712,29.817-99.062,30.04
				l-0.8,0.011h-0.016c-37.056,0-71.192-15.969-98.648-28.794C44.67,14.401,29.059,7.102,18.279,7.102
				c-4.444,0-7.718,1.207-10.302,3.807c-5.493,5.537-8.093,17.487-7.974,36.556C0.651,148.295,77.298,315.1,163.421,315.122v3.911
				l0.446-3.911c86.361-0.577,161.078-168.502,160.436-269.701C324.074,10.05,314.806,5.274,305.788,5.274z M29.103,97.733
				c-1.371-2.926-1.387-6.184-0.06-9.709c3.176-8.349,13.429-13.135,28.147-13.135c10.563,0,22.942,2.491,34.87,6.995
				c29.773,11.264,48.761,31.579,43.235,46.27c-1.294,3.405-4.471,7.457-12.238,7.457c-8.746,0-21.196-5.08-35.615-10.965
				c-4.917-2.002-10.024-4.085-15.175-6.032c-5.466-2.067-10.574-3.835-15.197-5.439C42.173,108.029,32.334,104.63,29.103,97.733z
				 M236.473,241.237c-10.204,10.334-37.72,34.418-72.976,34.625c-51.443,0-92.138-55.598-92.154-77.403
				c-0.033-2.986,0.696-5.221,2.235-6.793c0.919-0.908,2.54-1.991,5.124-1.991c4.922,0,11.623,3.949,21.756,9.937
				c17.329,10.231,41.049,24.253,66.324,24.253c25.618-0.152,48.919-13.636,64.344-22.556c9.502-5.488,15.779-9.116,20.56-9.116
				c1.773,0,7.539,0.664,7.577,9.045C259.36,211.518,250.631,226.867,236.473,241.237z M295.976,95.906
				c-3.089,6.967-12.891,10.59-27.734,16.067c-4.471,1.653-9.41,3.47-14.685,5.58c-5.009,2.018-9.997,4.15-14.816,6.211
				c-14.729,6.331-27.467,11.786-36.349,11.786c-7.511,0-10.655-3.922-11.961-7.212c-5.814-14.56,12.755-35.261,42.283-47.097
				c12.385-4.96,25.188-7.691,36.056-7.691c14.207,0,23.812,4.46,27.059,12.564C297.249,89.645,297.303,92.941,295.976,95.906z"/>
		</g>
	</g>
</g>
<g>
</g>
<g>
</g>
<g>
</g>
<g>
</g>
<g>
</g>
<g>
</g>
<g>
</g>
<g>
</g>
<g>
</g>
<g>
</g>
<g>
</g>
<g>
</g>
<g>
</g>
<g>
</g>
<g>
</g>
</svg>
