<?xml version="1.0" encoding="utf-8"?>
<!-- Generator: Adobe Illustrator 15.1.0, SVG Export Plug-In . SVG Version: 6.00 Build 0)  -->
<!DOCTYPE svg PUBLIC "-//W3C//DTD SVG 1.1//EN" "http://www.w3.org/Graphics/SVG/1.1/DTD/svg11.dtd">
<svg version="1.1" id="Capa_1" xmlns="http://www.w3.org/2000/svg" xmlns:xlink="http://www.w3.org/1999/xlink" x="0px" y="0px"
	 width="400px" height="400px" viewBox="0 0 400 400" enable-background="new 0 0 400 400" xml:space="preserve">
<g>
	<g>
		<g>
			<path fill="#010002" d="M377.158,6.505c-13.316,0-32.604,9.325-54.929,20.119C288.311,43,246.113,63.4,200.046,63.675
				l-0.987,0.014h-0.02c-45.705,0-87.808-19.696-121.672-35.514C55.096,17.762,35.841,8.76,22.545,8.76
				c-5.481,0-9.52,1.488-12.707,4.695c-6.775,6.83-9.982,21.568-9.835,45.088c0.799,124.363,95.335,330.101,201.56,330.128v4.823
				l0.55-4.823c106.518-0.713,198.674-207.831,197.882-332.649C399.713,12.396,388.281,6.505,377.158,6.505z M35.896,120.544
				c-1.691-3.609-1.71-7.627-0.074-11.975c3.917-10.298,16.563-16.201,34.716-16.201c13.028,0,28.297,3.072,43.009,8.627
				c36.722,13.893,60.142,38.95,53.326,57.069c-1.596,4.2-5.514,9.198-15.094,9.198c-10.787,0-26.143-6.266-43.927-13.524
				c-6.065-2.469-12.364-5.039-18.717-7.44c-6.742-2.549-13.042-4.73-18.744-6.708C52.016,133.243,39.881,129.051,35.896,120.544z
				 M291.666,297.541c-12.586,12.746-46.524,42.451-90.009,42.707c-63.45,0-113.643-68.574-113.663-95.469
				c-0.041-3.684,0.858-6.439,2.756-8.379c1.134-1.119,3.133-2.455,6.32-2.455c6.071,0,14.336,4.87,26.834,12.256
				c21.374,12.619,50.63,29.914,81.804,29.914c31.598-0.188,60.336-16.818,79.361-27.82c11.721-6.77,19.462-11.244,25.359-11.244
				c2.187,0,9.298,0.818,9.345,11.156C319.895,260.887,309.128,279.817,291.666,297.541z M365.057,118.291
				c-3.81,8.593-15.899,13.062-34.207,19.817c-5.515,2.039-11.606,4.28-18.112,6.882c-6.179,2.489-12.331,5.119-18.274,7.661
				c-18.166,7.809-33.878,14.537-44.832,14.537c-9.265,0-13.143-4.837-14.754-8.896c-7.17-17.958,15.732-43.491,52.152-58.089
				c15.275-6.118,31.066-9.486,44.472-9.486c17.522,0,29.369,5.501,33.374,15.497C366.627,110.568,366.693,114.633,365.057,118.291z
				"/>
		</g>
	</g>
</g>
</svg>
