<svg version="1.1" xmlns="http://www.w3.org/2000/svg" xmlns:xlink="http://www.w3.org/1999/xlink" x="0px" y="0px" width="450px"
	 height="450px" viewBox="-25 -25 450 450" enable-background="new -25 -25 450 450" xml:space="preserve">
<g id="svg-bg-mask">
	<path fill="none" stroke="#000000" stroke-miterlimit="10" d="M379.631,8.917L201.512,66.101L25.018,11.171l-12.707,4.695 L4.798,32.152L2.477,60.955l61.245,211.689l140.314,118.439h0.55l139.182-119.785l58.7-212.865l-7.354-41.119L379.631,8.917 L379.631,8.917z M38.368,122.956l-1.285-5.71l1.211-6.265l12.02-11.962l43.57-2.008l65.125,33.347l10.336,30.12l-4.553,6.174 l-10.541,3.024L50.22,133.289L38.368,122.956L38.368,122.956z M294.139,299.953L204.13,342.66l-80.618-37.648l-33.045-57.82 l0.651-4.844l2.105-3.535l2.39-1.648l3.93-0.807l108.638,42.17l104.721-39.064l5.475,1.701l3.87,9.455L294.139,299.953 L294.139,299.953z M367.529,120.702L355.862,131.3l-103.759,38.299l-10.247-2.926l-4.507-5.97l9.73-30.305l65.359-34.822 l43.29,1.551l11.618,11.497l1.361,6.3L367.529,120.702L367.529,120.702z"/><circle cx="379.631" cy="8.917" r="2.5"/><circle cx="395.114" cy="17.315" r="2.5"/><circle cx="402.468" cy="58.435" r="2.5"/><circle cx="343.768" cy="271.299" r="2.5"/><circle cx="204.586" cy="391.084" r="2.5"/><circle cx="204.036" cy="391.084" r="2.5"/><circle cx="63.722" cy="272.645" r="2.5"/><circle cx="2.477" cy="60.956" r="2.5"/><circle cx="4.798" cy="32.152" r="2.5"/><circle cx="12.312" cy="15.867" r="2.5"/><circle cx="25.018" cy="11.172" r="2.5"/><circle cx="201.512" cy="66.101" r="2.5"/><circle cx="379.631" cy="8.917" r="2.5"/><circle cx="38.368" cy="122.956" r="2.5"/><circle cx="50.22" cy="133.289" r="2.5"/><circle cx="154.251" cy="169.674" r="2.5"/><circle cx="164.792" cy="166.651" r="2.5"/><circle cx="169.346" cy="160.477" r="2.5"/><circle cx="159.009" cy="130.357" r="2.5"/><circle cx="93.884" cy="97.011" r="2.5"/><circle cx="50.314" cy="99.019" r="2.5"/><circle cx="38.294" cy="110.981" r="2.5"/><circle cx="37.083" cy="117.246" r="2.5"/><circle cx="38.368" cy="122.956" r="2.5"/><circle cx="294.139" cy="299.953" r="2.5"/><circle cx="322.247" cy="250.619" r="2.5"/><circle cx="318.377" cy="241.164" r="2.5"/><circle cx="312.902" cy="239.463" r="2.5"/><circle cx="208.182" cy="278.527" r="2.5"/><circle cx="99.543" cy="236.357" r="2.5"/><circle cx="95.614" cy="237.164" r="2.5"/><circle cx="91.118" cy="242.348" r="2.5"/><circle cx="90.467" cy="247.191" r="2.5"/><circle cx="123.512" cy="305.012" r="2.5"/><circle cx="204.13" cy="342.66" r="2.5"/><circle cx="294.139" cy="299.953" r="2.5"/><circle cx="367.529" cy="120.703" r="2.5"/><circle cx="368.709" cy="114.925" r="2.5"/><circle cx="367.348" cy="108.625" r="2.5"/><circle cx="355.729" cy="97.128" r="2.5"/><circle cx="312.439" cy="95.578" r="2.5"/><circle cx="247.08" cy="130.399" r="2.5"/><circle cx="237.35" cy="160.704" r="2.5"/><circle cx="241.856" cy="166.674" r="2.5"/><circle cx="252.104" cy="169.6" r="2.5"/><circle cx="355.862" cy="131.3" r="2.5"/><circle cx="367.529" cy="120.703" r="2.5"/>
</g>
<g id="svg-bg-bird">
	<path fill="none" stroke="#000000" stroke-miterlimit="10" d="M385.616,240.203l-49.6-5.639l-40.883-14.617 l-74.251,14.529l-8.067-2.898l-2.146-31.397l56.479-82.658l-23.59-35.354l-3.608-1.049l-54.958,100.578l-32.977-16.051 l-37.98,23.88l-10.548,16.829l-8.558-20.632l19.896-10.95l-12.328-40.602l-18.313,29.741l-16.157-25.851l2.557,0.987 l13.339-11.442l-14.996-30.89l-11.474,27.168l-9.498-11.464l-0.63-17.865L18.069,81.692l10.51,29.043l17.045,3.527l7.669,11.584 l-26.985,4.515l21.093,20.458l16.285-7.557l12.084,24.021l-32.704,0.821l20.985,27.813l20.9-4.85l8.395,26.539l-10.894,11.146 l15.228,2.268l11.412,34.568l0.495,0.471l0.754-0.619l-0.814-31.98l120.085,70.361l79.307-28.766l56.788,43.826l4.63-4.742 l16.537-68.338L385.616,240.203L385.616,240.203z"/>
	<path fill="none" stroke="#000000" stroke-miterlimit="10" d="M220.883,221.83l111.179-26.38l35.856-110.133 l-3.423-3.409l-1.211-0.16l-49.415,27.004L220.883,221.83L220.883,221.83z"/><circle cx="385.616" cy="240.203" r="2.5"/><circle cx="386.875" cy="245.801" r="2.5"/><circle cx="370.338" cy="314.139" r="2.5"/><circle cx="365.708" cy="318.881" r="2.5"/><circle cx="308.92" cy="275.055" r="2.5"/><circle cx="229.613" cy="303.82" r="2.5"/><circle cx="109.528" cy="233.459" r="2.5"/><circle cx="110.342" cy="265.439" r="2.5"/><circle cx="109.588" cy="266.059" r="2.5"/><circle cx="109.094" cy="265.588" r="2.5"/><circle cx="97.682" cy="231.02" r="2.5"/><circle cx="82.453" cy="228.752" r="2.5"/><circle cx="93.348" cy="217.605" r="2.5"/><circle cx="84.953" cy="191.066" r="2.5"/><circle cx="64.053" cy="195.916" r="2.5"/><circle cx="43.066" cy="168.104" r="2.5"/><circle cx="75.771" cy="167.282" r="2.5"/><circle cx="63.687" cy="143.262" r="2.5"/><circle cx="47.401" cy="150.818" r="2.5"/><circle cx="26.309" cy="130.36" r="2.5"/><circle cx="53.293" cy="125.846" r="2.5"/><circle cx="45.625" cy="114.262" r="2.5"/><circle cx="28.579" cy="110.734" r="2.5"/><circle cx="18.069" cy="81.691" r="2.5"/><circle cx="47.326" cy="94.557" r="2.5"/><circle cx="47.957" cy="112.422" r="2.5"/><circle cx="57.454" cy="123.886" r="2.5"/><circle cx="68.928" cy="96.717" r="2.5"/><circle cx="83.924" cy="127.607" r="2.5"/><circle cx="70.585" cy="139.05" r="2.5"/><circle cx="68.028" cy="138.063" r="2.5"/><circle cx="84.186" cy="163.913" r="2.5"/><circle cx="102.498" cy="134.172" r="2.5"/><circle cx="114.825" cy="174.773" r="2.5"/><circle cx="94.93" cy="185.724" r="2.5"/><circle cx="103.488" cy="206.355" r="2.5"/><circle cx="114.035" cy="189.526" r="2.5"/><circle cx="152.016" cy="165.646" r="2.5"/><circle cx="184.992" cy="181.697" r="2.5"/><circle cx="239.95" cy="81.119" r="2.5"/><circle cx="243.559" cy="82.168" r="2.5"/><circle cx="267.148" cy="117.523" r="2.5"/><circle cx="210.669" cy="200.182" r="2.5"/><circle cx="212.815" cy="231.578" r="2.5"/><circle cx="220.883" cy="234.477" r="2.5"/><circle cx="295.134" cy="219.947" r="2.5"/><circle cx="336.017" cy="234.564" r="2.5"/><circle cx="385.616" cy="240.203" r="2.5"/><circle cx="220.883" cy="221.83" r="2.5"/><circle cx="313.869" cy="108.752" r="2.5"/><circle cx="363.284" cy="81.748" r="2.5"/><circle cx="364.495" cy="81.908" r="2.5"/><circle cx="367.918" cy="85.316" r="2.5"/><circle cx="332.062" cy="195.449" r="2.5"/><circle cx="220.883" cy="221.83" r="2.5"/>
</g>
<g id="svg-bg-hammer">
	<path fill="none" stroke="#000000" stroke-miterlimit="10" d="M222.511,371.861H83.148v-56.004h139.362V371.861L222.511,371.861z  M397.32,315.887H257.838v55.998h139.46v-55.998H397.32L397.32,315.887z M301.677,202.262H178.72v70.898h122.904L301.677,202.262z  M182.835,146.488L182.835,146.488l12.47-2.234l28.067-40.327l-2.182-12.47l-8.684-5.976l-38.073,55.155L182.835,146.488 L182.835,146.488z M7.624,229.5l29.427,20.676l74.472-106.218l-29.552-20.67L7.624,229.5L7.624,229.5z M166.131,124.991 l3.646,7.292l32.957-47.04l-47.508-33.274L47.884,28.116L39.5,30.814l56.422,61.629l-13.636,19.436l38.452,27.044l36.422-20.145 L166.131,124.991L166.131,124.991z"/>
	<circle cx="222.512" cy="371.861" r="2.5"/><circle cx="222.512" cy="315.857" r="2.5"/><circle cx="83.148" cy="315.857" r="2.5"/><circle cx="83.148" cy="371.861" r="2.5"/><circle cx="222.512" cy="371.861" r="2.5"/><circle cx="397.32" cy="315.887" r="2.5"/><circle cx="397.299" cy="315.887" r="2.5"/><circle cx="397.299" cy="371.885" r="2.5"/><circle cx="257.838" cy="371.885" r="2.5"/><circle cx="257.838" cy="315.887" r="2.5"/><circle cx="397.32" cy="315.887" r="2.5"/><circle cx="301.625" cy="273.16" r="2.5"/><circle cx="178.72" cy="273.16" r="2.5"/><circle cx="178.72" cy="202.262" r="2.5"/><circle cx="301.678" cy="202.262" r="2.5"/><circle cx="182.835" cy="146.488" r="2.5"/><circle cx="174.434" cy="140.637" r="2.5"/><circle cx="212.508" cy="85.482" r="2.5"/><circle cx="221.191" cy="91.458" r="2.5"/><circle cx="223.373" cy="103.928" r="2.5"/><circle cx="195.305" cy="144.254" r="2.5"/><circle cx="182.835" cy="146.488" r="2.5"/><circle cx="182.835" cy="146.488" r="2.5"/><circle cx="7.624" cy="229.5" r="2.5"/><circle cx="81.971" cy="123.287" r="2.5"/><circle cx="111.523" cy="143.957" r="2.5"/><circle cx="37.051" cy="250.176" r="2.5"/><circle cx="7.624" cy="229.5" r="2.5"/><circle cx="166.131" cy="124.99" r="2.5"/><circle cx="157.16" cy="118.779" r="2.5"/><circle cx="120.738" cy="138.924" r="2.5"/><circle cx="82.287" cy="111.879" r="2.5"/><circle cx="95.923" cy="92.444" r="2.5"/><circle cx="39.5" cy="30.814" r="2.5"/><circle cx="47.884" cy="28.116" r="2.5"/><circle cx="155.226" cy="51.969" r="2.5"/><circle cx="202.734" cy="85.243" r="2.5"/><circle cx="169.778" cy="132.282" r="2.5"/><circle cx="166.131" cy="124.99" r="2.5"/>
</g>
<g id="svg-bg-head">
	<path fill="none" stroke="#363639" stroke-miterlimit="10" d="M29.967,224.947l8.152,8.961l5.301,2.34l0.98,1.094l-4.267,23.689
		l10.046,14.006l-7.184,19.166l4.571,17.805l3.33,13.979l51.438,5.285l7.741,8.969l1.71,59.211h174.156l1.606-47.113l79.688-154.497
		l7.74-57.078l-10.325-46.752l-35.171-50.608l-49.877-29.715L174.065,0.549L86.666,33.098l-0.626,0.658l8.135,3.126l-32,39.347
		l9.069,5.652l-24.26,66.755l-0.188,3.301l3.387,12.567L29.967,224.947L29.967,224.947z"/><circle cx="29.967" cy="225.496" r="2.5"/><circle cx="50.184" cy="165.052" r="2.5"/><circle cx="46.797" cy="152.484" r="2.5"/><circle cx="46.984" cy="149.183" r="2.5"/><circle cx="71.244" cy="82.429" r="2.5"/><circle cx="62.175" cy="76.777" r="2.5"/><circle cx="94.175" cy="37.429" r="2.5"/><circle cx="86.04" cy="34.304" r="2.5"/><circle cx="86.666" cy="33.646" r="2.5"/><circle cx="174.065" cy="1.098" r="2.5"/><circle cx="279.604" cy="14.236" r="2.5"/><circle cx="329.481" cy="43.951" r="2.5"/><circle cx="364.652" cy="94.559" r="2.5"/><circle cx="374.978" cy="141.312" r="2.5"/><circle cx="367.237" cy="198.39" r="2.5"/><circle cx="287.55" cy="352.887" r="2.5"/><circle cx="285.943" cy="400" r="2.5"/><circle cx="111.787" cy="400" r="2.5"/><circle cx="110.077" cy="340.789" r="2.5"/><circle cx="102.336" cy="331.82" r="2.5"/><circle cx="50.897" cy="326.535" r="2.5"/><circle cx="47.567" cy="312.557" r="2.5"/><circle cx="42.996" cy="294.752" r="2.5"/><circle cx="50.18" cy="275.586" r="2.5"/><circle cx="40.134" cy="261.58" r="2.5"/><circle cx="44.4" cy="237.891" r="2.5"/><circle cx="43.42" cy="236.797" r="2.5"/><circle cx="38.119" cy="234.457" r="2.5"/><circle cx="29.967" cy="225.496" r="2.5"/>
</g>
</svg>
