<?xml version="1.0" encoding="utf-8"?>
<!-- Generator: Adobe Illustrator 15.1.0, SVG Export Plug-In . SVG Version: 6.00 Build 0)  -->
<!DOCTYPE svg PUBLIC "-//W3C//DTD SVG 1.1//EN" "http://www.w3.org/Graphics/SVG/1.1/DTD/svg11.dtd">
<svg version="1.1" xmlns="http://www.w3.org/2000/svg" xmlns:xlink="http://www.w3.org/1999/xlink" x="0px" y="0px" width="400px"
	 height="400px" viewBox="0 0 400 400" enable-background="new 0 0 400 400" xml:space="preserve">
<g id="fill">
	<g opacity="0.3">
		<circle cx="200" cy="200" r="40"/>
		<path d="M240,200c0.012,5.236-1.006,10.478-3.009,15.322c-1.995,4.847-4.961,9.291-8.663,13.006
			c-3.7,3.717-8.136,6.703-12.982,8.721c-4.844,2.025-10.093,3.067-15.346,3.076c-5.252,0.012-10.51-1.01-15.37-3.019
			c-4.862-2.001-9.32-4.977-13.046-8.689c-3.729-3.713-6.724-8.162-8.748-13.023c-2.031-4.858-3.077-10.125-3.085-15.394
			c0.005-5.269,1.053-10.535,3.083-15.394c2.024-4.861,5.02-9.311,8.749-13.023c3.727-3.714,8.185-6.688,13.047-8.69
			c4.86-2.009,10.117-3.03,15.37-3.018c5.253,0.009,10.502,1.051,15.346,3.076c4.847,2.018,9.282,5.004,12.982,8.721
			c3.702,3.715,6.668,8.16,8.663,13.006C238.994,189.522,240.012,194.763,240,200z M240,200c-0.009-5.237-1.048-10.469-3.066-15.298
			c-2.012-4.831-4.988-9.253-8.693-12.942c-3.704-3.691-8.135-6.647-12.966-8.636c-4.829-1.996-10.054-3.011-15.274-2.999
			c-5.221,0.009-10.437,1.044-15.25,3.057c-4.816,2.005-9.224,4.973-12.901,8.667c-3.679,3.692-6.626,8.109-8.608,12.925
			c-1.991,4.813-3,10.021-2.991,15.226c-0.012,5.205,1,10.413,2.99,15.227c1.983,4.816,4.93,9.233,8.609,12.926
			c3.678,3.693,8.086,6.661,12.902,8.667c4.813,2.012,10.029,3.048,15.25,3.056c5.221,0.013,10.445-1.003,15.274-2.999
			c4.831-1.988,9.262-4.945,12.966-8.636c3.705-3.689,6.683-8.111,8.693-12.942C238.952,210.47,239.991,205.236,240,200z"/>
	</g>
</g>
<g id="mask">
	<g>
		<g>
			<g>
				<path fill="#040305" d="M222.145,179.813c-1.664,0-4.075,1.166-6.866,2.515c-4.239,2.047-9.515,4.597-15.272,4.631l-0.124,0.001
					h-0.002c-5.713,0-10.976-2.461-15.209-4.439c-2.784-1.302-5.191-2.427-6.853-2.427c-0.685,0-1.19,0.186-1.588,0.586
					c-0.847,0.854-1.248,2.696-1.229,5.636c0.1,15.545,11.917,41.263,25.195,41.266v0.604l0.069-0.604
					c13.314-0.089,24.834-25.979,24.734-41.581C224.964,180.549,223.535,179.813,222.145,179.813z M179.487,194.068
					c-0.211-0.451-0.214-0.954-0.009-1.497c0.489-1.287,2.07-2.025,4.339-2.025c1.629,0,3.538,0.384,5.376,1.078
					c4.591,1.736,7.519,4.869,6.667,7.134c-0.2,0.524-0.689,1.149-1.887,1.149c-1.349,0-3.268-0.783-5.491-1.691
					c-0.758-0.309-1.545-0.63-2.34-0.93c-0.842-0.319-1.63-0.591-2.343-0.838C181.502,195.655,179.985,195.131,179.487,194.068z
					 M211.458,216.192c-1.573,1.594-5.815,5.307-11.25,5.339c-7.932,0-14.205-8.571-14.208-11.934
					c-0.005-0.461,0.107-0.805,0.345-1.048c0.142-0.139,0.391-0.307,0.789-0.307c0.759,0,1.792,0.609,3.355,1.532
					c2.671,1.577,6.329,3.739,10.225,3.739c3.95-0.023,7.542-2.103,9.92-3.478c1.465-0.847,2.433-1.405,3.17-1.405
					c0.272,0,1.162,0.102,1.168,1.395C214.986,211.611,213.641,213.978,211.458,216.192z M220.632,193.787
					c-0.477,1.074-1.987,1.632-4.275,2.477c-0.689,0.255-1.451,0.535-2.265,0.86c-0.772,0.311-1.541,0.64-2.284,0.958
					c-2.271,0.976-4.234,1.817-5.604,1.817c-1.158,0-1.643-0.604-1.844-1.112c-0.896-2.245,1.967-5.437,6.52-7.262
					c1.909-0.764,3.883-1.185,5.559-1.185c2.19,0,3.671,0.688,4.172,1.937C220.828,192.821,220.837,193.329,220.632,193.787z"/>
			</g>
		</g>
	</g>
</g>
<g id="bird" display="none">
	<g id="XMLID_196_" display="inline">
		<path id="XMLID_198_" fill="#010101" d="M224.806,205.44c-0.173-0.214-0.433-0.334-0.707-0.328
			c-2.216,0.053-4.247-0.139-6.015-0.437c-1.963-0.329-3.817-1.009-5.54-1.98c-4.865,1.231-9.546,1.913-9.818,1.951
			c-0.08,0.012-0.163,0.018-0.243,0.018c-0.396,0-0.783-0.138-1.093-0.393c-0.372-0.309-0.596-0.76-0.619-1.242
			c-0.002-0.038-0.038-1.238,0.328-3.013c0.626-3.022,2.466-7.706,7.653-11.2c-0.847-2.111-2.333-3.88-3.196-4.791
			c-0.126-0.132-0.312-0.187-0.489-0.143c-0.176,0.045-0.314,0.181-0.363,0.355c-0.732,2.674-2.948,4.693-2.948,4.693
			c-2.867,3.086-3.91,6.077-4.136,8.581c-1.053-1.316-2.652-2.176-4.469-2.176c-2.272,0-4.223,1.321-5.146,3.236
			c-0.393,0.812-0.88,1.57-1.429,2.28c-0.317-0.927-0.725-1.862-1.16-2.796c1.207,0.421,2.48-0.194,2.696-1.483
			c0.293-1.314-1.611-5.53-1.671-5.502c0.018,0.021-2.229,2.798-2.481,4.03c-0.693-1.269-1.446-2.449-2.189-3.503
			c0.116,0.045,0.223,0.111,0.347,0.134c0.968,0.178,1.805-0.483,1.808-1.551c0.052-1.086-1.997-4.21-2.032-4.186
			c0.014,0.012-1.538,2.665-1.555,3.682c-0.472-0.597-0.907-1.118-1.287-1.554c0.578-0.603,0.588-1.64-0.085-2.421
			c-0.727-0.895-3.97-1.783-3.965-1.743c0.044,0.008,0.812,3.169,1.424,3.936c0.615,0.708,1.586,0.896,2.311,0.478
			c0.31,0.449,0.659,0.973,1.039,1.57c-1.068-0.257-3.669,0.598-3.657,0.611c0.028-0.021,1.999,2.382,2.858,2.772
			c0.886,0.355,1.909-0.099,2.207-1.024c0.562,1.006,1.122,2.104,1.638,3.255c-1.271-0.47-4.442,0.088-4.432,0.111
			c0.045-0.026,1.906,3.133,2.844,3.77c0.965,0.583,2.267,0.348,2.832-0.657c0.309,0.926,0.595,1.85,0.857,2.729
			c0.096,0.3,0.187,0.576,0.28,0.866c-0.322,0.303-0.653,0.596-1.005,0.864l-0.356,0.271c-0.115,0.088-0.16,0.238-0.115,0.375
			c0.047,0.137,0.174,0.229,0.319,0.229h0.738c0.34,0,0.673,0.039,1.006,0.078c0.11,0.338,0.225,0.689,0.325,1.001
			c0.689,2.178,1.215,3.685,1.221,3.684c0.013,0.032,0.037,0.058,0.067,0.063c0.052,0.01,0.096-0.026,0.103-0.083
			c-0.007,0.003,0.229-1.6-0.049-3.952c-0.014-0.119-0.045-0.259-0.062-0.382c0.862,0.275,1.679,0.684,2.423,1.222
			c0.891,0.645,1.979,1.025,3.153,1.063c0.9,3.569,5.341,7.249,10.696,7.249c4.125,0,7.712-1.495,9.555-3.699
			c0.293-0.352,0.8-0.437,1.191-0.198c2.821,1.716,5.421,4.225,6.832,5.696c0.223,0.233,0.554,0.326,0.863,0.242
			c0.311-0.083,0.551-0.329,0.628-0.643l2.24-9.26C225.04,205.933,224.976,205.652,224.806,205.44z"/>
		<path id="XMLID_197_" fill="#010101" d="M202.482,202.95c0,0,9.101-1.303,15.065-3.574c5.965-2.273,5.697-11.722,4.859-14.924
			c-0.061-0.226-0.236-0.402-0.464-0.462c-0.054-0.015-0.109-0.021-0.164-0.021c-0.173,0-0.34,0.069-0.465,0.197
			c-2.482,2.558-6.231,3.462-6.231,3.462C201.974,191.969,202.482,202.95,202.482,202.95z"/>
	</g>
</g>
<g id="head" display="none">
	<g display="inline">
		<path fill="#040305" d="M179.455,204.308c0.229,0.088,0.445,0.186,0.663,0.292c0.051,0.023,0.118,0.091,0.122,0.137
			c0.005,0.25,0.017,0.506-0.015,0.762c-0.09,0.755-0.26,1.483-0.519,2.199c-0.099,0.281-0.067,0.55,0.095,0.787
			c0.124,0.183,0.277,0.354,0.451,0.493c0.215,0.174,0.462,0.311,0.71,0.471c-0.059,0.041-0.12,0.084-0.172,0.132
			c-0.206,0.195-0.423,0.374-0.606,0.586c-0.348,0.426-0.396,1.196-0.12,1.678c0.082,0.143,0.191,0.271,0.281,0.409
			c0.229,0.357,0.453,0.72,0.39,1.172c-0.034,0.216-0.048,0.435-0.1,0.645c-0.162,0.656-0.016,1.24,0.417,1.747
			c0.273,0.314,0.595,0.621,1,0.74c0.277,0.076,0.609,0.079,0.884,0.052c0.815-0.069,1.619-0.204,2.436-0.303
			c0.794-0.095,1.343-0.08,2.11,0.172c0.542,0.176,0.874,0.613,0.968,1.121c0.114,0.646,0.167,1.303,0.198,1.964l0.016,5.438h21.77
			c0.011-0.424,0.014-0.843,0.02-1.269c0.019-1.084,0.033-2.175,0.038-3.259c0.004-0.46,0.039-0.913,0.143-1.361
			c0.67-2.876,1.732-5.599,3.157-8.18c0.878-1.592,1.874-3.106,3.049-4.5c1.663-1.978,2.913-4.193,3.755-6.633
			c0.246-0.711,0.46-1.438,0.604-2.176c0.159-0.821,0.493-2.271,0.363-4.959c-0.038-0.457-0.071-0.917-0.12-1.374
			c-0.178-1.546-0.564-3.036-1.171-4.47c-0.584-1.376-1.307-2.672-2.207-3.868c-0.661-0.883-1.38-1.707-2.189-2.458
			c-1.814-1.687-3.941-2.846-6.234-3.715c-1.517-0.576-3.085-0.982-4.685-1.273c-1.424-0.266-2.85-0.465-4.298-0.505
			c-0.084-0.002-2.079-0.002-2.123,0.002c-0.697,0.043-1.395,0.056-2.087,0.135c-2.249,0.262-4.429,0.814-6.535,1.656
			c-1.567,0.624-3.031,1.417-4.39,2.412c-0.032,0.019-0.047,0.046-0.078,0.082c0.337,0.125,0.655,0.253,1.017,0.391
			c-1.672,1.379-2.902,3.085-4,4.918c0.386,0.237,0.758,0.47,1.134,0.707c-0.12,0.249-0.233,0.484-0.353,0.717
			c-1.237,2.424-2.096,4.977-2.68,7.628c-0.029,0.134-0.063,0.287-0.023,0.412c0.091,0.307,0.239,0.599,0.33,0.907
			c0.063,0.213,0.133,0.456,0.093,0.664c-0.176,0.938-0.471,1.841-0.821,2.729c-0.376,0.941-0.765,1.882-1.112,2.838
			c-0.233,0.647-0.397,1.327-0.593,1.988C178.437,203.209,178.141,203.806,179.455,204.308z"/>
	</g>
</g>
<g id="hammer" display="none">
	<g display="inline">
		<path fill="#040305" d="M202.571,221.818c0,0.524-0.469,0.954-1.052,0.954h-15.77c-0.587,0-1.06-0.43-1.06-0.954v-7.185
			c0-0.53,0.475-0.954,1.06-0.954h15.77c0.586,0,1.052,0.424,1.052,0.954V221.818z M225,214.637c0-0.526-0.476-0.953-1.062-0.953
			h-15.771c-0.589,0-1.063,0.427-1.063,0.953v7.186c0,0.523,0.476,0.95,1.063,0.95h15.766c0.592,0,1.064-0.427,1.064-0.95v-7.186
			H225z M213.79,201.011c0-0.526-0.477-0.953-1.062-0.953h-15.776c-0.578,0-1.06,0.427-1.06,0.953v7.188
			c0,0.523,0.484,0.956,1.06,0.956h15.77c0.592,0,1.068-0.43,1.068-0.956V201.011L213.79,201.011z M197.48,192.902L197.48,192.902
			c0.516,0.363,1.229,0.236,1.6-0.286l3.602-5.174c0.361-0.517,0.234-1.237-0.28-1.601l0,0l-1.114-0.767l-4.885,7.077
			L197.48,192.902z M175,203.554c0.693,1.475,2.246,2.483,3.775,2.652l9.556-13.628l-3.792-2.652L175,203.554z M195.337,190.144
			c0.067,0.093,0.131,0.188,0.188,0.287c0.042,0.076,0.084,0.149,0.115,0.217c0.064,0.146,0.131,0.29,0.165,0.432
			c1.407-2.015,2.818-4.023,4.229-6.035c0,0-3.289,0.4-5.016-3.517c-0.354-0.25-0.727-0.5-1.079-0.753
			c-4.965-3.468-9.672-4.174-13.772-3.061c-0.227,0.063-0.669,0.21-1.076,0.347c-0.72,0.244-0.594,1.337,0.214,1.206
			c0.379-0.066,0.767-0.129,0.956-0.14c0.78-0.033,1.53-0.086,2.31,0.058c3.33,0.639,5.944,3.67,3.76,6.783
			c-0.586,0.834-1.763,2.474-1.749,2.493c0.007,0.014,4.956,3.433,4.933,3.47c-0.14,0.2,0.338-0.444,0.49-0.641
			c0.734-0.859,2.28-2.329,4.184-1.943c0.298,0.065,0.547,0.2,0.754,0.371c0.101,0.09,0.206,0.183,0.292,0.289
			C195.274,190.052,195.303,190.098,195.337,190.144z"/>
	</g>
</g>
<g id="rim" display="none">
	<g display="inline">
		<g>
			<path fill-rule="evenodd" clip-rule="evenodd" d="M239.896,197.011c-0.021-0.139-0.067-1.466-0.427-3.743
				c-0.36-2.272-1.052-5.51-2.584-9.298c-1.529-3.775-3.926-8.108-7.583-12.244c-3.637-4.126-8.554-8.055-14.636-10.741
				c-6.051-2.71-13.257-4.086-20.64-3.454c-7.378,0.606-14.879,3.336-21.084,7.932c-6.228,4.56-11.125,10.903-13.958,17.837
				c-2.877,6.935-3.677,14.347-2.906,20.994c0.495,7.351,2.937,14.631,7.075,20.813c4.118,6.19,9.901,11.282,16.588,14.53
				c1.564,0.83,3.427,1.598,4.441,1.966c0.57,0.216,1.156,0.404,1.746,0.587c-0.341-0.002-0.675-0.008-1.005,0.013
				c-0.691,0.083-1.398,0.191-1.946,0.524c-0.019,0.097-0.205,0.166-0.276,0.249c-0.151,0.177-0.188,0.437-0.188,0.629
				c0,0.127,0.085,0.241,0.1,0.351c0.005,0.035-0.054,0.039-0.043,0.069c0.052,0.143,0.27,0.408,0.396,0.556
				c0.059,0.068,0.144,0.124,0.212,0.196c0.009,0.01-0.038,0.02-0.021,0.034c0.339,0.311,0.876,0.606,1.564,0.903
				c0.042,0.016,0.06-0.012,0.109,0.017c0.206,0.079,0.419,0.156,0.628,0.216c1.124,0.309,2.564,0.381,3.451,0.226
				c0.815-0.134,1.46-0.541,1.487-0.9c0.024-0.316-0.457-0.698-1.284-1.067c-0.739-0.318-1.654-0.574-2.297-0.498
				c0.286,0.099,0.499,0.204,0.555,0.306c-0.017,0.087-0.037,0.173-0.229,0.248c-0.342,0.055-0.854,0.048-1.295-0.207
				c-0.622-0.352-0.541-0.821,0.22-0.898c0.206,0.012,0.407-0.021,0.553-0.024c0.331-0.01,0.613-0.007,0.922,0.006
				c0.832,0.03,1.85,0.059,2.603,0.11l0.393,0.029c2.33,0.412,4.55,0.58,6.383,0.684l-0.059,0.003
				c-0.584,0.039-1.02,0.082-1.545,0.145c-0.196,0.021-0.422,0.02-0.594,0.043c-0.061,0.007-0.106,0.041-0.175,0.053
				c-0.228,0.041-0.464,0.054-0.697,0.104c-0.737,0.161-1.545,0.441-1.707,0.866c0.085,0.304,0.346,0.616,1.24,0.848l0.297,0.059
				c1.374,0.196,2.707-0.181,2.896-0.688c-0.066-0.041-0.108-0.088-0.095-0.142c-0.255-0.178-1.25-0.319-1.701-0.208
				c0.223,0.017,0.321,0.025,0.397,0.098c0,0.18-0.611,0.23-0.896,0.067c-0.091-0.192,0.129-0.346,0.528-0.497
				c0.162-0.061,0.366-0.096,0.568-0.145c0.269-0.068,0.514-0.148,0.777-0.191c0.237-0.038,0.505-0.05,0.745-0.084l0.163-0.029
				l0.514-0.061l0.757-0.05l0.399-0.056l0.274-0.022c1.913,0.084,3.525,0.132,4.899,0.379c1.346,0.226,1.07,0.757,0.313,1.201
				c-0.753,0.444-1.989,0.722-2.393,0.305c0.719-0.3,1.707-0.775,1.822-1.021c0.112-0.263-0.607-0.227-3.374,0.131
				c-2.978,0.499-3.338,1.617-1.851,2.357c1.458,0.743,4.864,0.75,8.432-0.943c2.968-1.423,3.544-2.323,2.997-2.71
				c-0.561-0.396-2.294-0.426-4.287-0.361c-2.987,0.099-6.1,0.042-9.321-0.23c-3.219-0.271-6.551-0.778-9.894-1.662
				c3.856,0.26,8.092,0.765,12.166,0.931c4.063,0.21,7.937,0.037,10.781-0.104c1.45-0.057,2.891-0.154,3.908-0.105
				c1.015,0.047,1.619,0.263,1.385,0.961c-0.238,0.708-1.507,1.451-2.323,1.711c-0.815,0.27-1.121,0.132,0.546-0.684
				c-0.204-0.414-2.444,0.652-4.204,1.682c-0.874,0.522-1.615,1.084-1.836,1.515c-0.22,0.427,0.098,0.77,1.336,0.697
				c2.246-0.098,5.084-1.652,7.226-3.372c2.166-1.718,3.703-3.495,4.03-4.261c1.032-2.49-2.729-0.476-8.397,0.72
				c-2.826,0.623-6.107,1.063-9.271,1.139c-3.163,0.094-6.198-0.153-8.554-0.471c4.044-0.031,8.708-0.094,13.27-0.865
				c4.559-0.731,8.929-2.205,12.267-3.855c2.668-1.253,5.479-3.079,6.955-4c2.246-1.448-0.924,2.277-1.359,2.356
				c-0.303,0.049,2.633-2.754,0.171-0.87c-1.099,0.809-2.064,1.679-2.79,2.471c-0.721,0.795-1.205,1.508-1.346,1.858
				c-0.329,0.822,0.191,0.871,1.146,0.35c0.947-0.525,2.306-1.621,3.596-2.968c1.293-1.346,2.544-2.888,3.433-4.237
				c0.912-1.327,1.5-2.428,1.577-2.894c0.161-1.039-0.809-0.178-2.797,1.398c-1.974,1.589-5.033,3.864-8.802,5.767
				c-3.751,1.924-8.181,3.458-12.381,4.248c-4.194,0.823-8.119,0.959-10.765,0.82l0.457-0.101c3.56-0.188,6.963-0.923,9.927-1.925
				c4.542-0.8,8.859-1.711,13.031-3.562c4.156-1.826,8.107-4.583,11.505-8.504c3.87-4.457,6.85-10.745,8.229-15.819
				c0.756-2.697,1.024-4.663,1.171-5.677c0.072-0.514-0.066,0.764-0.264,2.02c-0.201,1.254-0.465,2.482-0.361,1.895l0.269-1.39
				c0.196-1.258,0.095-0.571-0.164,0.727c-0.251,1.3-0.743,3.195-1.093,4.398c-0.602,2.093-0.684,2.405-0.376,1.673
				c0.287-0.737,0.865-2.551,1.306-4.72c0.59-2.937,0.8-5.176,0.92-6.807c0.102-1.633,0.128-2.659,0.125-3.196
				c-0.006-1.074,0.035-0.187-0.054,1.721c-0.132,2.529-0.555,5.808-1.726,9.373c-1.156,3.563-3.074,7.389-5.774,10.891
				c-2.685,3.514-6.11,6.687-9.894,9.247c-3.788,2.561-7.922,4.535-12.036,5.838c2.154-0.987,3.491-2.007,4.832-2.982
				c1.163-0.854,1.924-1.68,1.771-2.101c-0.154-0.45-1.226-0.434-3.8-0.305c-0.705-0.504-1.798-0.887-4.124-1.307
				c-2.741-0.5-5.095-0.721-5.653,0.267c0.03,0.592,0.44,1.098,1.794,1.529c0.887,0.313,3.866,0.305,2.257-0.263
				c-0.981,0.235-0.982-0.232-0.551-0.41c1.566,0.109,2.063,0.43,2.169,0.946l0.003,0.013c0.263,1.248-0.158,2.324-1.195,3.334
				l-0.001-0.001c-0.166-0.073-0.381-0.105-0.534-0.166c-0.05-0.021-0.009-0.047-0.057-0.061c-0.225-0.07-0.738-0.168-1.024-0.227
				l-0.416-0.073c-0.021-0.004,0.004-0.028-0.026-0.033c-0.657-0.112-1.463-0.209-2.388-0.299c-0.056-0.006-0.037,0.025-0.113,0.01
				c-0.269-0.026-0.54-0.047-0.788-0.057c-1.321-0.054-2.704,0.085-3.413,0.395c-0.646,0.281-0.908,0.904-0.551,1.394
				c0.305,0.422,1.258,0.841,2.557,1.008c1.154,0.154,2.396,0.044,2.909-0.262c-0.399,0.024-0.738-0.007-0.919-0.079
				c-0.091-0.086-0.178-0.175-0.087-0.31c0.257-0.169,0.751-0.309,1.467-0.256c0.758,0.052,1.256,0.269,1.198,0.529
				c-3.02,1.565-8.057,2.589-13.684,1.674h0.07c0.751-0.01,1.284-0.076,1.904-0.171c0.232-0.039,0.52-0.042,0.716-0.081
				c0.07-0.014,0.094-0.067,0.17-0.088c0.251-0.07,0.526-0.112,0.763-0.203c0.753-0.294,1.385-0.795,1.138-1.417
				c-0.404-0.45-0.985-0.872-2.174-1.317c-0.124-0.047-0.253-0.069-0.38-0.12c-1.667-0.473-2.956-0.144-2.859,0.804
				c0.11,0.094,0.194,0.189,0.217,0.287c0.435,0.396,1.799,0.77,2.241,0.587c-0.284-0.044-0.412-0.065-0.563-0.195
				c-0.145-0.317,0.538-0.343,1.019-0.052c0.278,0.322,0.158,0.562-0.199,0.805c-0.145,0.1-0.368,0.145-0.578,0.222
				c-0.279,0.099-0.525,0.226-0.828,0.275c-0.272,0.046-0.612,0.047-0.903,0.067l-0.191,0.028c-0.227,0.01-0.407,0.036-0.636,0.034
				c-0.302-0.005-0.637-0.057-0.985-0.068c-0.172-0.006-0.324,0.019-0.504,0.008l-0.334-0.032c-0.866-0.236-1.733-0.512-2.592-0.841
				c-1.039-0.371-2.396-0.915-3.494-1.45c-4.839-1.864-9.396-4.705-13.268-8.388c-3.874-3.676-7.054-8.195-9.194-13.228
				c-4.338-10.057-4.262-22.085,0.341-32.239c2.686-5.676,6.77-10.844,11.811-14.808c5.024-3.984,10.982-6.751,17.1-8.03
				c6.119-1.302,12.349-1.142,18.02,0.163c5.685,1.295,10.78,3.768,14.96,6.793c4.192,3.027,7.477,6.6,9.895,10.126
				c2.425,3.532,4.005,7.005,5.015,9.986c1.021,2.985,1.48,5.482,1.738,7.229c0.246,1.751,0.301,2.763,0.314,2.884
				C240.012,198.66,239.995,200,240,200C239.995,200,240.012,198.66,239.896,197.011z"/>
		</g>
	</g>
</g>
<g id="selector">
	<path stroke="#000000" stroke-miterlimit="10" d="M240,200.334c0,8.237-2.269,17.206-9.646,25.707
		c-2.218,2.556-4.701,5.041-7.268,7.386c-10.557,9.644-22.505,16.906-23.086,16.906c-0.325,0-12.025-7.395-22.411-16.529
		c-2.735-2.406-5.38-4.933-7.701-7.477c-8.179-8.964-9.888-17.174-9.888-25.993c0-22.091,17.909-40,40-40
		C222.092,160.334,240,178.243,240,200.334z M200,164c-19.882,0-36,16.118-36,36c0,19.883,16.118,36,36,36c19.883,0,36-16.117,36-36
		C236,180.118,219.883,164,200,164z"/>
</g>
<g id="text">
	<text transform="matrix(1 0 0 1 240.5 241.1826)" font-family="'MyriadPro-Regular'" font-size="18">View his portfolio.</text>
	<text transform="matrix(1 0 0 1 254.5 204)" font-family="'MyriadPro-Regular'" font-size="18">Play a game!</text>
	<text transform="matrix(1 0 0 1 240 165)" font-family="'MyriadPro-Regular'" font-size="18">About him.</text>
	<text transform="matrix(1 0 0 1 60.2773 165)" font-family="'MyriadPro-Regular'" font-size="18">Contact him.</text>
</g>
</svg>
